<?xml version="1.0" encoding="UTF-8"?>
<svg xmlns="http://www.w3.org/2000/svg" xmlns:xlink="http://www.w3.org/1999/xlink" width="392.9pt" height="245.7pt" viewBox="0 0 392.9 245.7" version="1.1">
<defs>
<clipPath id="clip1">
  <path d="M 0 151 L 21 151 L 21 245.699219 L 0 245.699219 Z M 0 151 "/>
</clipPath>
<clipPath id="clip2">
  <path d="M 132 151 L 184 151 L 184 245.699219 L 132 245.699219 Z M 132 151 "/>
</clipPath>
<clipPath id="clip3">
  <path d="M 198 151 L 220 151 L 220 245.699219 L 198 245.699219 Z M 198 151 "/>
</clipPath>
<clipPath id="clip4">
  <path d="M 35 151 L 118 151 L 118 245.699219 L 35 245.699219 Z M 35 151 "/>
</clipPath>
<clipPath id="clip5">
  <path d="M 244 231 L 248 231 L 248 245.699219 L 244 245.699219 Z M 244 231 "/>
</clipPath>
<clipPath id="clip6">
  <path d="M 252 231 L 264 231 L 264 245.699219 L 252 245.699219 Z M 252 231 "/>
</clipPath>
<clipPath id="clip7">
  <path d="M 268 231 L 277 231 L 277 245.699219 L 268 245.699219 Z M 268 231 "/>
</clipPath>
<clipPath id="clip8">
  <path d="M 280 231 L 294 231 L 294 245.699219 L 280 245.699219 Z M 280 231 "/>
</clipPath>
<clipPath id="clip9">
  <path d="M 297 231 L 309 231 L 309 245.699219 L 297 245.699219 Z M 297 231 "/>
</clipPath>
<clipPath id="clip10">
  <path d="M 312 231 L 325 231 L 325 245.699219 L 312 245.699219 Z M 312 231 "/>
</clipPath>
<clipPath id="clip11">
  <path d="M 329 231 L 342 231 L 342 245.699219 L 329 245.699219 Z M 329 231 "/>
</clipPath>
<clipPath id="clip12">
  <path d="M 342 231 L 355 231 L 355 245.699219 L 342 245.699219 Z M 342 231 "/>
</clipPath>
<clipPath id="clip13">
  <path d="M 358 231 L 362 231 L 362 245.699219 L 358 245.699219 Z M 358 231 "/>
</clipPath>
<clipPath id="clip14">
  <path d="M 366 231 L 378 231 L 378 245.699219 L 366 245.699219 Z M 366 231 "/>
</clipPath>
<clipPath id="clip15">
  <path d="M 380 231 L 392.898438 231 L 392.898438 245.699219 L 380 245.699219 Z M 380 231 "/>
</clipPath>
<clipPath id="clip16">
  <path d="M 383 204 L 392.898438 204 L 392.898438 218 L 383 218 Z M 383 204 "/>
</clipPath>
<clipPath id="clip17">
  <path d="M 383 177 L 392.898438 177 L 392.898438 191 L 383 191 Z M 383 177 "/>
</clipPath>
<clipPath id="clip18">
  <path d="M 379 150 L 392.898438 150 L 392.898438 165 L 379 165 Z M 379 150 "/>
</clipPath>
</defs>
<g id="surface1">
<g clip-path="url(#clip1)" clip-rule="nonzero">
<path style=" stroke:none;fill-rule:evenodd;fill:rgb(15.281677%,19.993591%,36.473083%);fill-opacity:1;" d="M 0.015625 245.0625 L 20.40625 245.0625 L 20.40625 151.179688 L 0.015625 151.179688 Z M 0.015625 245.0625 "/>
</g>
<g clip-path="url(#clip2)" clip-rule="nonzero">
<path style=" stroke:none;fill-rule:evenodd;fill:rgb(15.281677%,19.993591%,36.473083%);fill-opacity:1;" d="M 132.53125 245.0625 L 132.53125 151.179688 L 183.519531 151.179688 L 183.519531 166.828125 L 152.921875 166.828125 L 152.921875 190.316406 L 173.308594 190.316406 L 173.308594 205.949219 L 152.921875 205.949219 L 152.921875 229.429688 L 183.519531 229.429688 L 183.519531 245.0625 Z M 132.53125 245.0625 "/>
</g>
<g clip-path="url(#clip3)" clip-rule="nonzero">
<path style=" stroke:none;fill-rule:evenodd;fill:rgb(15.281677%,19.993591%,36.473083%);fill-opacity:1;" d="M 198.792969 245.0625 L 219.175781 245.0625 L 219.175781 151.179688 L 198.792969 151.179688 Z M 198.792969 245.0625 "/>
</g>
<g clip-path="url(#clip4)" clip-rule="nonzero">
<path style=" stroke:none;fill-rule:evenodd;fill:rgb(15.281677%,19.993591%,36.473083%);fill-opacity:1;" d="M 35.695313 245.0625 L 35.695313 151.179688 L 45.855469 151.179688 L 101.957031 203.34375 L 101.957031 151.179688 L 117.242188 151.179688 L 117.242188 245.0625 L 107.03125 245.0625 L 50.992188 192.917969 L 50.992188 245.0625 Z M 35.695313 245.0625 "/>
</g>
<g clip-path="url(#clip5)" clip-rule="nonzero">
<path style=" stroke:none;fill-rule:evenodd;fill:rgb(15.281677%,19.993591%,36.473083%);fill-opacity:1;" d="M 244.40625 245.339844 L 247.589844 245.339844 L 247.589844 231.984375 L 244.40625 231.984375 Z M 244.40625 245.339844 "/>
</g>
<g clip-path="url(#clip6)" clip-rule="nonzero">
<path style=" stroke:none;fill-rule:evenodd;fill:rgb(15.281677%,19.993591%,36.473083%);fill-opacity:1;" d="M 252.886719 245.339844 L 255.277344 245.339844 L 255.277344 237.335938 L 255.316406 237.335938 L 260.421875 245.339844 L 263.078125 245.339844 L 263.078125 231.984375 L 260.660156 231.984375 L 260.660156 240.011719 L 260.628906 240.011719 L 255.539063 231.984375 L 252.886719 231.984375 Z M 252.886719 245.339844 "/>
</g>
<g clip-path="url(#clip7)" clip-rule="nonzero">
<path style=" stroke:none;fill-rule:evenodd;fill:rgb(15.281677%,19.993591%,36.473083%);fill-opacity:1;" d="M 268.355469 245.339844 L 271.542969 245.339844 L 271.542969 239.890625 L 275.6875 239.890625 L 275.6875 237.894531 L 271.542969 237.894531 L 271.542969 234.203125 L 276.625 234.203125 L 276.625 231.984375 L 268.355469 231.984375 Z M 268.355469 245.339844 "/>
</g>
<g clip-path="url(#clip8)" clip-rule="nonzero">
<path style=" stroke:none;fill-rule:evenodd;fill:rgb(15.281677%,19.993591%,36.473083%);fill-opacity:1;" d="M 283.425781 238.683594 C 283.425781 236.542969 284.246094 233.886719 286.53125 233.886719 C 288.78125 233.886719 289.609375 236.542969 289.609375 238.683594 C 289.609375 240.824219 288.78125 243.464844 286.53125 243.464844 C 284.246094 243.464844 283.425781 240.824219 283.425781 238.683594 Z M 280.019531 238.683594 C 280.019531 243.113281 282.628906 245.683594 286.53125 245.683594 C 290.429688 245.683594 293.019531 243.113281 293.019531 238.683594 C 293.019531 234.234375 290.429688 231.660156 286.53125 231.660156 C 282.628906 231.660156 280.019531 234.234375 280.019531 238.683594 Z M 280.019531 238.683594 "/>
</g>
<g clip-path="url(#clip9)" clip-rule="nonzero">
<path style=" stroke:none;fill-rule:evenodd;fill:rgb(15.281677%,19.993591%,36.473083%);fill-opacity:1;" d="M 300.492188 234.203125 L 301.476563 234.203125 C 302.90625 234.203125 303.273438 234.824219 303.273438 235.71875 C 303.273438 236.710938 302.660156 237.996094 301.558594 237.996094 L 300.492188 237.996094 Z M 297.484375 245.339844 L 300.492188 245.339844 L 300.492188 240.011719 L 301.628906 240.011719 L 304.207031 245.339844 L 308.0625 245.339844 L 304.226563 239.136719 C 305.507813 238.464844 306.464844 236.949219 306.464844 235.328125 C 306.464844 232.941406 304.6875 231.984375 303.203125 231.984375 L 297.484375 231.984375 Z M 297.484375 245.339844 "/>
</g>
<g clip-path="url(#clip10)" clip-rule="nonzero">
<path style=" stroke:none;fill-rule:evenodd;fill:rgb(15.281677%,19.993591%,36.473083%);fill-opacity:1;" d="M 312.152344 245.339844 L 314.554688 245.339844 L 314.554688 235.769531 L 314.589844 235.769531 L 317.132813 244.453125 L 319.449219 244.453125 L 322.019531 235.988281 L 322.058594 235.988281 L 322.058594 245.339844 L 324.957031 245.339844 L 324.957031 231.984375 L 321.375 231.984375 L 318.816406 240.503906 L 318.796875 240.503906 L 316.28125 231.984375 L 312.152344 231.984375 Z M 312.152344 245.339844 "/>
</g>
<g clip-path="url(#clip11)" clip-rule="nonzero">
<path style=" stroke:none;fill-rule:evenodd;fill:rgb(15.281677%,19.993591%,36.473083%);fill-opacity:1;" d="M 333.082031 239.832031 L 334.695313 235.101563 L 336.351563 239.832031 Z M 329.066406 245.339844 L 331.191406 245.339844 L 332.375 241.945313 L 337.058594 241.945313 L 338.226563 245.339844 L 341.429688 245.339844 L 336.839844 231.984375 L 333.644531 231.984375 Z M 329.066406 245.339844 "/>
</g>
<g clip-path="url(#clip12)" clip-rule="nonzero">
<path style=" stroke:none;fill-rule:evenodd;fill:rgb(15.281677%,19.993591%,36.473083%);fill-opacity:1;" d="M 347.15625 245.339844 L 350.347656 245.339844 L 350.347656 234.222656 L 354.675781 234.222656 L 354.675781 231.984375 L 342.816406 231.984375 L 342.816406 234.222656 L 347.15625 234.222656 Z M 347.15625 245.339844 "/>
</g>
<g clip-path="url(#clip13)" clip-rule="nonzero">
<path style=" stroke:none;fill-rule:evenodd;fill:rgb(15.281677%,19.993591%,36.473083%);fill-opacity:1;" d="M 358.734375 245.339844 L 361.925781 245.339844 L 361.925781 231.984375 L 358.734375 231.984375 Z M 358.734375 245.339844 "/>
</g>
<g clip-path="url(#clip14)" clip-rule="nonzero">
<path style=" stroke:none;fill-rule:evenodd;fill:rgb(15.281677%,19.993591%,36.473083%);fill-opacity:1;" d="M 377.195313 232.101563 C 375.890625 231.785156 374.488281 231.660156 372.917969 231.660156 C 369.007813 231.660156 366.425781 234.234375 366.425781 238.683594 C 366.425781 243.113281 369.007813 245.683594 372.917969 245.683594 C 374.574219 245.683594 376.027344 245.453125 377.382813 244.949219 L 377.382813 242.5 C 376.332031 243.046875 375.09375 243.464844 373.949219 243.464844 C 371.210938 243.464844 369.804688 241.582031 369.804688 238.574219 C 369.804688 236.183594 370.722656 233.886719 373.628906 233.886719 C 374.851563 233.886719 376.054688 234.191406 377.195313 234.667969 Z M 377.195313 232.101563 "/>
</g>
<g clip-path="url(#clip15)" clip-rule="nonzero">
<path style=" stroke:none;fill-rule:evenodd;fill:rgb(15.281677%,19.993591%,36.473083%);fill-opacity:1;" d="M 384.601563 239.832031 L 386.214844 235.101563 L 387.832031 239.832031 Z M 380.566406 245.339844 L 382.699219 245.339844 L 383.878906 241.945313 L 388.566406 241.945313 L 389.734375 245.339844 L 392.949219 245.339844 L 388.359375 231.984375 L 385.15625 231.984375 Z M 380.566406 245.339844 "/>
</g>
<path style=" stroke:none;fill-rule:evenodd;fill:rgb(15.281677%,19.993591%,36.473083%);fill-opacity:1;" d="M 244.40625 217.914063 L 252.972656 217.914063 L 252.972656 215.71875 L 247.589844 215.71875 L 247.589844 212.011719 L 251.691406 212.011719 L 251.691406 210.035156 L 247.589844 210.035156 L 247.589844 206.800781 L 252.582031 206.800781 L 252.582031 204.574219 L 244.40625 204.574219 Z M 244.40625 217.914063 "/>
<path style=" stroke:none;fill-rule:evenodd;fill:rgb(15.281677%,19.993591%,36.473083%);fill-opacity:1;" d="M 255.890625 217.914063 C 256.757813 218.109375 258.070313 218.265625 259.621094 218.265625 C 263.902344 218.265625 264.535156 215.578125 264.535156 214.222656 C 264.535156 209.886719 258.980469 209.605469 258.980469 207.605469 C 258.980469 206.722656 259.921875 206.457031 260.546875 206.457031 C 261.585938 206.457031 262.65625 206.800781 263.597656 207.183594 L 263.597656 204.652344 C 262.445313 204.410156 261.234375 204.230469 260.046875 204.230469 C 257.925781 204.230469 255.804688 205.308594 255.804688 208 C 255.804688 212.203125 261.144531 212.421875 261.144531 214.585938 C 261.144531 215.78125 259.972656 216.035156 259.132813 216.035156 C 258.03125 216.035156 256.914063 215.71875 255.890625 215.242188 Z M 255.890625 217.914063 "/>
<path style=" stroke:none;fill-rule:evenodd;fill:rgb(15.281677%,19.993591%,36.473083%);fill-opacity:1;" d="M 270.832031 217.914063 L 274.027344 217.914063 L 274.027344 206.800781 L 278.378906 206.800781 L 278.378906 204.574219 L 266.492188 204.574219 L 266.492188 206.800781 L 270.832031 206.800781 Z M 270.832031 217.914063 "/>
<path style=" stroke:none;fill-rule:evenodd;fill:rgb(15.281677%,19.993591%,36.473083%);fill-opacity:1;" d="M 282.667969 212.421875 L 284.304688 207.683594 L 285.921875 212.421875 Z M 278.652344 217.914063 L 280.785156 217.914063 L 281.96875 214.511719 L 286.648438 214.511719 L 287.820313 217.914063 L 291.03125 217.914063 L 286.4375 204.574219 L 283.25 204.574219 Z M 278.652344 217.914063 "/>
<path style=" stroke:none;fill-rule:evenodd;fill:rgb(15.281677%,19.993591%,36.473083%);fill-opacity:1;" d="M 297.246094 206.800781 L 298.863281 206.800781 C 301.703125 206.800781 302.226563 209.269531 302.226563 211.140625 C 302.226563 213.378906 301.539063 215.71875 298.789063 215.71875 L 297.246094 215.578125 Z M 294.054688 217.914063 L 300 217.914063 C 303.109375 217.914063 305.621094 215.71875 305.621094 211.019531 C 305.621094 205.695313 302.226563 204.574219 300.574219 204.574219 L 294.054688 204.574219 Z M 294.054688 217.914063 "/>
<path style=" stroke:none;fill-rule:evenodd;fill:rgb(15.281677%,19.993591%,36.473083%);fill-opacity:1;" d="M 309.015625 217.914063 L 312.238281 217.914063 L 312.238281 204.574219 L 309.015625 204.574219 Z M 309.015625 217.914063 "/>
<path style=" stroke:none;fill-rule:evenodd;fill:rgb(15.281677%,19.993591%,36.473083%);fill-opacity:1;" d="M 315.8125 217.914063 C 316.6875 218.109375 317.996094 218.265625 319.542969 218.265625 C 323.820313 218.265625 324.445313 215.578125 324.445313 214.222656 C 324.445313 209.886719 318.894531 209.605469 318.894531 207.605469 C 318.894531 206.722656 319.828125 206.457031 320.453125 206.457031 C 321.515625 206.457031 322.542969 206.800781 323.53125 207.183594 L 323.53125 204.652344 C 322.363281 204.410156 321.167969 204.230469 319.953125 204.230469 C 317.851563 204.230469 315.710938 205.308594 315.710938 208 C 315.710938 212.203125 321.054688 212.421875 321.054688 214.585938 C 321.054688 215.78125 319.890625 216.035156 319.0625 216.035156 C 317.949219 216.035156 316.835938 215.71875 315.8125 215.242188 Z M 315.8125 217.914063 "/>
<path style=" stroke:none;fill-rule:evenodd;fill:rgb(15.281677%,19.993591%,36.473083%);fill-opacity:1;" d="M 330.742188 217.914063 L 333.953125 217.914063 L 333.953125 206.800781 L 338.285156 206.800781 L 338.285156 204.574219 L 326.417969 204.574219 L 326.417969 206.800781 L 330.742188 206.800781 Z M 330.742188 217.914063 "/>
<path style=" stroke:none;fill-rule:evenodd;fill:rgb(15.281677%,19.993591%,36.473083%);fill-opacity:1;" d="M 341.234375 217.914063 L 344.429688 217.914063 L 344.429688 204.574219 L 341.234375 204.574219 Z M 341.234375 217.914063 "/>
<path style=" stroke:none;fill-rule:evenodd;fill:rgb(15.281677%,19.993591%,36.473083%);fill-opacity:1;" d="M 358.585938 204.679688 C 357.289063 204.371094 355.910156 204.230469 354.324219 204.230469 C 350.421875 204.230469 347.824219 206.820313 347.824219 211.257813 C 347.824219 215.703125 350.421875 218.265625 354.324219 218.265625 C 355.988281 218.265625 357.441406 218.035156 358.78125 217.546875 L 358.78125 215.089844 C 357.765625 215.632813 356.511719 216.035156 355.386719 216.035156 C 352.625 216.035156 351.21875 214.164063 351.21875 211.179688 C 351.21875 208.761719 352.125 206.457031 355.03125 206.457031 C 356.246094 206.457031 357.457031 206.761719 358.585938 207.242188 Z M 358.585938 204.679688 "/>
<path style=" stroke:none;fill-rule:evenodd;fill:rgb(15.281677%,19.993591%,36.473083%);fill-opacity:1;" d="M 364.914063 212.421875 L 366.523438 207.683594 L 368.148438 212.421875 Z M 360.875 217.914063 L 363.042969 217.914063 L 364.191406 214.511719 L 368.886719 214.511719 L 370.035156 217.914063 L 373.246094 217.914063 L 368.664063 204.574219 L 365.464844 204.574219 Z M 360.875 217.914063 "/>
<g clip-path="url(#clip16)" clip-rule="nonzero">
<path style=" stroke:none;fill-rule:evenodd;fill:rgb(15.281677%,19.993591%,36.473083%);fill-opacity:1;" d="M 383.867188 217.914063 L 392.441406 217.914063 L 392.441406 215.71875 L 387.066406 215.71875 L 387.066406 212.011719 L 391.144531 212.011719 L 391.144531 210.035156 L 387.066406 210.035156 L 387.066406 206.800781 L 392.0625 206.800781 L 392.0625 204.574219 L 383.867188 204.574219 Z M 383.867188 217.914063 "/>
</g>
<path style=" stroke:none;fill-rule:evenodd;fill:rgb(15.281677%,19.993591%,36.473083%);fill-opacity:1;" d="M 244.40625 190.492188 L 246.796875 190.492188 L 246.796875 182.480469 L 246.828125 182.480469 L 251.933594 190.492188 L 254.597656 190.492188 L 254.597656 177.15625 L 252.179688 177.15625 L 252.179688 185.183594 L 252.140625 185.183594 L 247.0625 177.15625 L 244.40625 177.15625 Z M 244.40625 190.492188 "/>
<path style=" stroke:none;fill-rule:evenodd;fill:rgb(15.281677%,19.993591%,36.473083%);fill-opacity:1;" d="M 262.667969 185.003906 L 264.285156 180.289063 L 265.902344 185.003906 Z M 258.632813 190.492188 L 260.773438 190.492188 L 261.949219 187.117188 L 266.628906 187.117188 L 267.792969 190.492188 L 271.015625 190.492188 L 266.417969 177.15625 L 263.230469 177.15625 Z M 258.632813 190.492188 "/>
<path style=" stroke:none;fill-rule:evenodd;fill:rgb(15.281677%,19.993591%,36.473083%);fill-opacity:1;" d="M 285.03125 177.253906 C 283.722656 176.933594 282.355469 176.828125 280.757813 176.828125 C 276.855469 176.828125 274.257813 179.429688 274.257813 183.835938 C 274.257813 188.273438 276.855469 190.84375 280.757813 190.84375 C 282.421875 190.84375 283.871094 190.617188 285.238281 190.121094 L 285.238281 187.664063 C 284.195313 188.199219 282.949219 188.609375 281.816406 188.609375 C 279.074219 188.609375 277.675781 186.742188 277.675781 183.742188 C 277.675781 181.351563 278.566406 179.039063 281.480469 179.039063 C 282.699219 179.039063 283.890625 179.355469 285.03125 179.828125 Z M 285.03125 177.253906 "/>
<path style=" stroke:none;fill-rule:evenodd;fill:rgb(15.281677%,19.993591%,36.473083%);fill-opacity:1;" d="M 289.515625 190.492188 L 292.714844 190.492188 L 292.714844 177.15625 L 289.515625 177.15625 Z M 289.515625 190.492188 "/>
<path style=" stroke:none;fill-rule:evenodd;fill:rgb(15.281677%,19.993591%,36.473083%);fill-opacity:1;" d="M 300.539063 183.835938 C 300.539063 181.695313 301.378906 179.039063 303.652344 179.039063 C 305.898438 179.039063 306.726563 181.695313 306.726563 183.835938 C 306.726563 185.988281 305.898438 188.609375 303.652344 188.609375 C 301.378906 188.609375 300.539063 185.988281 300.539063 183.835938 Z M 297.136719 183.835938 C 297.136719 188.273438 299.753906 190.84375 303.652344 190.84375 C 307.554688 190.84375 310.125 188.273438 310.125 183.835938 C 310.125 179.429688 307.554688 176.828125 303.652344 176.828125 C 299.753906 176.828125 297.136719 179.429688 297.136719 183.835938 Z M 297.136719 183.835938 "/>
<path style=" stroke:none;fill-rule:evenodd;fill:rgb(15.281677%,19.993591%,36.473083%);fill-opacity:1;" d="M 314.554688 190.492188 L 316.960938 190.492188 L 316.960938 182.480469 L 316.992188 182.480469 L 322.09375 190.492188 L 324.746094 190.492188 L 324.746094 177.15625 L 322.363281 177.15625 L 322.363281 185.183594 L 322.304688 185.183594 L 317.222656 177.15625 L 314.554688 177.15625 Z M 314.554688 190.492188 "/>
<path style=" stroke:none;fill-rule:evenodd;fill:rgb(15.281677%,19.993591%,36.473083%);fill-opacity:1;" d="M 332.824219 185.003906 L 334.464844 180.289063 L 336.070313 185.003906 Z M 328.789063 190.492188 L 330.929688 190.492188 L 332.105469 187.117188 L 336.800781 187.117188 L 337.976563 190.492188 L 341.175781 190.492188 L 336.570313 177.15625 L 333.378906 177.15625 Z M 328.789063 190.492188 "/>
<path style=" stroke:none;fill-rule:evenodd;fill:rgb(15.281677%,19.993591%,36.473083%);fill-opacity:1;" d="M 345.214844 190.492188 L 353.816406 190.492188 L 353.816406 188.28125 L 348.425781 188.28125 L 348.425781 177.15625 L 345.214844 177.15625 Z M 345.214844 190.492188 "/>
<path style=" stroke:none;fill-rule:evenodd;fill:rgb(15.281677%,19.993591%,36.473083%);fill-opacity:1;" d="M 371.054688 179.363281 L 372.679688 179.363281 C 375.503906 179.363281 376.054688 181.878906 376.054688 183.730469 C 376.054688 185.96875 375.347656 188.28125 372.59375 188.28125 L 371.054688 188.152344 Z M 367.851563 190.492188 L 373.789063 190.492188 C 376.914063 190.492188 379.441406 188.28125 379.441406 183.597656 C 379.441406 178.265625 376.054688 177.15625 374.382813 177.15625 L 367.851563 177.15625 Z M 367.851563 190.492188 "/>
<g clip-path="url(#clip17)" clip-rule="nonzero">
<path style=" stroke:none;fill-rule:evenodd;fill:rgb(15.281677%,19.993591%,36.473083%);fill-opacity:1;" d="M 383.867188 190.492188 L 392.441406 190.492188 L 392.441406 188.28125 L 387.066406 188.28125 L 387.066406 184.621094 L 391.144531 184.621094 L 391.144531 182.621094 L 387.066406 182.621094 L 387.066406 179.363281 L 392.0625 179.363281 L 392.0625 177.15625 L 383.867188 177.15625 Z M 383.867188 190.492188 "/>
</g>
<path style=" stroke:none;fill-rule:evenodd;fill:rgb(15.281677%,19.993591%,36.473083%);fill-opacity:1;" d="M 244.40625 164.5625 L 247.589844 164.5625 L 247.589844 151.21875 L 244.40625 151.21875 Z M 244.40625 164.5625 "/>
<path style=" stroke:none;fill-rule:evenodd;fill:rgb(15.281677%,19.993591%,36.473083%);fill-opacity:1;" d="M 256.828125 164.5625 L 259.257813 164.5625 L 259.257813 156.550781 L 259.285156 156.550781 L 264.378906 164.5625 L 267.039063 164.5625 L 267.039063 151.21875 L 264.636719 151.21875 L 264.636719 159.253906 L 264.601563 159.253906 L 259.492188 151.21875 L 256.828125 151.21875 Z M 256.828125 164.5625 "/>
<path style=" stroke:none;fill-rule:evenodd;fill:rgb(15.281677%,19.993591%,36.473083%);fill-opacity:1;" d="M 275.6875 164.5625 C 276.5625 164.738281 277.867188 164.898438 279.398438 164.898438 C 283.707031 164.898438 284.3125 162.222656 284.3125 160.886719 C 284.3125 156.496094 278.78125 156.261719 278.78125 154.246094 C 278.78125 153.386719 279.707031 153.113281 280.34375 153.113281 C 281.378906 153.113281 282.421875 153.4375 283.398438 153.816406 L 283.398438 151.285156 C 282.222656 151.046875 281.015625 150.886719 279.839844 150.886719 C 277.734375 150.886719 275.59375 151.945313 275.59375 154.648438 C 275.59375 158.847656 280.917969 159.058594 280.917969 161.234375 C 280.917969 162.421875 279.773438 162.671875 278.921875 162.671875 C 277.8125 162.671875 276.703125 162.347656 275.6875 161.898438 Z M 275.6875 164.5625 "/>
<path style=" stroke:none;fill-rule:evenodd;fill:rgb(15.281677%,19.993591%,36.473083%);fill-opacity:1;" d="M 295.679688 164.5625 L 298.882813 164.5625 L 298.882813 153.453125 L 303.222656 153.453125 L 303.222656 151.21875 L 291.328125 151.21875 L 291.328125 153.453125 L 295.679688 153.453125 Z M 295.679688 164.5625 "/>
<path style=" stroke:none;fill-rule:evenodd;fill:rgb(15.281677%,19.993591%,36.473083%);fill-opacity:1;" d="M 311.214844 164.5625 L 314.417969 164.5625 L 314.417969 151.21875 L 311.214844 151.21875 Z M 311.214844 164.5625 "/>
<path style=" stroke:none;fill-rule:evenodd;fill:rgb(15.281677%,19.993591%,36.473083%);fill-opacity:1;" d="M 326.761719 164.5625 L 329.960938 164.5625 L 329.960938 153.453125 L 334.292969 153.453125 L 334.292969 151.21875 L 322.410156 151.21875 L 322.410156 153.453125 L 326.761719 153.453125 Z M 326.761719 164.5625 "/>
<path style=" stroke:none;fill-rule:evenodd;fill:rgb(15.281677%,19.993591%,36.473083%);fill-opacity:1;" d="M 342.3125 151.21875 L 342.3125 159.695313 C 342.3125 163.332031 344.589844 164.898438 347.527344 164.898438 C 352.476563 164.898438 352.492188 160.886719 352.492188 159.695313 L 352.492188 151.21875 L 349.714844 151.21875 L 349.714844 159.292969 C 349.714844 161.78125 349.007813 162.671875 347.601563 162.671875 C 345.96875 162.671875 345.484375 161.46875 345.484375 158.960938 L 345.484375 151.21875 Z M 342.3125 151.21875 "/>
<path style=" stroke:none;fill-rule:evenodd;fill:rgb(15.281677%,19.993591%,36.473083%);fill-opacity:1;" d="M 364.839844 164.5625 L 368.035156 164.5625 L 368.035156 153.453125 L 372.382813 153.453125 L 372.382813 151.21875 L 360.5 151.21875 L 360.5 153.453125 L 364.839844 153.453125 Z M 364.839844 164.5625 "/>
<g clip-path="url(#clip18)" clip-rule="nonzero">
<path style=" stroke:none;fill-rule:evenodd;fill:rgb(15.281677%,19.993591%,36.473083%);fill-opacity:1;" d="M 382.96875 157.902344 C 382.96875 155.75 383.820313 153.113281 386.085938 153.113281 C 388.332031 153.113281 389.15625 155.75 389.15625 157.902344 C 389.15625 160.042969 388.332031 162.671875 386.085938 162.671875 C 383.820313 162.671875 382.96875 160.042969 382.96875 157.902344 Z M 379.582031 157.902344 C 379.582031 162.34375 382.195313 164.898438 386.085938 164.898438 C 389.976563 164.898438 392.558594 162.34375 392.558594 157.902344 C 392.558594 153.472656 389.976563 150.886719 386.085938 150.886719 C 382.195313 150.886719 379.582031 153.472656 379.582031 157.902344 Z M 379.582031 157.902344 "/>
</g>
<path style=" stroke:none;fill-rule:evenodd;fill:rgb(15.281677%,19.993591%,36.473083%);fill-opacity:1;" d="M 132.53125 109.445313 L 163.125 93.804688 L 163.125 109.445313 L 132.53125 125.089844 Z M 132.53125 109.445313 "/>
<path style=" stroke:none;fill-rule:evenodd;fill:rgb(0%,54.881287%,83.59375%);fill-opacity:1;" d="M 188.601563 104.230469 L 163.125 93.804688 L 163.125 109.445313 L 188.601563 119.871094 Z M 188.601563 104.230469 "/>
<path style=" stroke:none;fill-rule:evenodd;fill:rgb(15.281677%,19.993591%,36.473083%);fill-opacity:1;" d="M 132.53125 88.597656 L 163.125 72.9375 L 163.125 88.597656 L 132.53125 104.230469 Z M 132.53125 88.597656 "/>
<path style=" stroke:none;fill-rule:evenodd;fill:rgb(15.281677%,19.993591%,36.473083%);fill-opacity:1;" d="M 132.53125 67.734375 L 163.125 52.09375 L 163.125 67.734375 L 132.53125 83.375 Z M 132.53125 67.734375 "/>
<path style=" stroke:none;fill-rule:evenodd;fill:rgb(15.281677%,19.993591%,36.473083%);fill-opacity:1;" d="M 188.601563 104.230469 L 219.175781 88.597656 L 219.175781 104.230469 L 188.601563 119.871094 Z M 188.601563 104.230469 "/>
<path style=" stroke:none;fill-rule:evenodd;fill:rgb(15.281677%,19.993591%,36.473083%);fill-opacity:1;" d="M 188.601563 83.375 L 219.175781 67.734375 L 219.175781 83.375 L 188.601563 99.023438 Z M 188.601563 83.375 "/>
<path style=" stroke:none;fill-rule:evenodd;fill:rgb(15.281677%,19.993591%,36.473083%);fill-opacity:1;" d="M 188.601563 62.507813 L 219.175781 46.882813 L 219.175781 62.507813 L 188.601563 78.175781 Z M 188.601563 62.507813 "/>
<path style=" stroke:none;fill-rule:evenodd;fill:rgb(0%,54.881287%,83.59375%);fill-opacity:1;" d="M 188.601563 83.375 L 163.125 72.9375 L 163.125 88.597656 L 188.601563 99.023438 Z M 188.601563 83.375 "/>
<path style=" stroke:none;fill-rule:evenodd;fill:rgb(0%,54.881287%,83.59375%);fill-opacity:1;" d="M 188.601563 62.507813 L 163.125 52.09375 L 163.125 67.734375 L 188.601563 78.175781 Z M 188.601563 62.507813 "/>
<path style=" stroke:none;fill-rule:evenodd;fill:rgb(15.281677%,19.993591%,36.473083%);fill-opacity:1;" d="M 188.601563 15.566406 L 219.175781 -0.0859375 L 219.175781 31.222656 L 188.601563 46.882813 Z M 188.601563 15.566406 "/>
</g>
</svg>
